<svg version="1.1" id="Layer_1" xmlns="http://www.w3.org/2000/svg" xmlns:xlink="http://www.w3.org/1999/xlink" x="0px" y="0px"
	 width="100%" viewBox="0 0 200 200" enable-background="new 0 0 200 200" xml:space="preserve">
<path fill="#080A41" opacity="1.000000" stroke="none" 
	d="
M93.000000,201.000000 
	C62.019073,201.000000 31.538143,201.000000 1.028608,201.000000 
	C1.028608,134.394104 1.028608,67.788193 1.028608,1.091139 
	C67.564110,1.091139 134.128387,1.091139 200.846329,1.091139 
	C200.846329,67.666397 200.846329,134.333160 200.846329,201.000000 
	C165.121811,201.000000 129.310898,201.000000 93.000000,201.000000 
M93.989052,80.002411 
	C93.989052,80.002411 94.156471,80.006409 93.973831,79.462532 
	C93.669464,79.242737 93.365089,79.022942 93.056168,78.931091 
	C93.056168,78.931091 93.184135,78.934822 93.063560,78.382248 
	C92.707932,77.959328 92.352303,77.536400 92.032310,77.026466 
	C92.032310,77.026466 91.945381,76.990654 91.945084,76.388199 
	C91.661552,75.876762 91.378014,75.365334 91.027687,74.960785 
	C91.027687,74.960785 91.134743,75.027298 91.201485,74.185219 
	C91.360710,72.220215 91.519928,70.255203 91.684669,68.222061 
	C83.777901,68.222061 75.913101,68.222061 68.104683,68.222061 
	C68.104683,90.339462 68.104683,112.032448 68.104683,133.889862 
	C90.169815,133.889862 111.866570,133.889862 133.960510,133.889862 
	C133.960510,125.855644 133.960510,118.091827 134.720871,110.122597 
	C135.365158,110.242325 136.013580,110.343285 136.653046,110.484818 
	C141.017242,111.450844 144.497345,109.953339 146.963470,106.391594 
	C149.343582,102.954086 149.402390,99.222893 147.057983,95.731506 
	C144.636261,92.124962 141.169067,90.640015 136.801193,91.428177 
	C135.863464,91.597389 134.886215,91.547653 134.082504,90.751305 
	C134.082504,83.202995 134.082504,75.654686 134.082504,68.154755 
	C125.639305,68.154755 117.946159,68.154755 110.581642,68.154755 
	C110.351967,71.299377 110.151459,74.044594 109.775986,76.853867 
	C109.775986,76.853867 109.805550,77.037827 109.334442,77.378265 
	C108.795586,78.223846 108.256729,79.069435 107.040199,80.194824 
	C103.233284,83.049377 99.251053,82.544670 94.972839,80.310562 
	C94.646210,80.152039 94.319588,79.993515 93.989052,80.002411 
z"/>
<path fill="#0EFBA8" opacity="1.000000" stroke="none" 
	d="
M95.204758,80.812500 
	C99.251053,82.544670 103.233284,83.049377 107.675064,79.922882 
	C108.808472,78.779900 109.307014,77.908867 109.805557,77.037827 
	C109.805550,77.037827 109.775986,76.853867 110.132698,76.604385 
	C111.286217,69.000763 116.261063,68.314934 122.136078,69.044456 
	C122.626152,69.105316 123.130348,69.052032 123.627983,69.052559 
	C132.639267,69.062080 132.830048,69.354675 132.982849,78.194656 
	C133.060165,82.666794 133.597717,87.130989 133.927170,91.598770 
	C134.886215,91.547653 135.863464,91.597389 136.801193,91.428177 
	C141.169067,90.640015 144.636261,92.124962 147.057983,95.731506 
	C149.402390,99.222893 149.343582,102.954086 146.963470,106.391594 
	C144.497345,109.953339 141.017242,111.450844 136.653046,110.484818 
	C136.013580,110.343285 135.365158,110.242325 134.101562,110.408157 
	C133.292221,115.958099 132.835892,121.230408 132.992065,126.484497 
	C133.130020,131.125290 131.626984,133.069321 126.720306,133.012589 
	C109.735207,132.816162 92.746185,132.983047 75.758781,132.947372 
	C69.939674,132.935165 69.051147,132.044281 69.034698,126.303352 
	C68.992218,111.481033 68.973213,96.658295 69.037056,81.836128 
	C69.098709,67.520218 67.450920,69.281021 81.881180,68.959564 
	C86.634140,68.853691 90.476860,69.285110 91.134743,75.027298 
	C91.134743,75.027298 91.027687,74.960785 91.074409,75.206345 
	C91.395882,75.964813 91.670631,76.477737 91.945381,76.990654 
	C91.945381,76.990654 92.032310,77.026466 92.099014,77.333267 
	C92.505196,78.071648 92.844666,78.503235 93.184135,78.934822 
	C93.184135,78.934822 93.056168,78.931091 93.203781,79.100060 
	C93.619751,79.514816 93.888115,79.760612 94.156471,80.006409 
	C94.156471,80.006409 93.989052,80.002411 94.155777,80.127365 
	C94.616592,80.439041 94.910675,80.625771 95.204758,80.812500 
z"/>
<path fill="#39E2B8" opacity="1.000000" stroke="none" 
	d="
M91.168114,74.606262 
	C90.476860,69.285110 86.634140,68.853691 81.881180,68.959564 
	C67.450920,69.281021 69.098709,67.520218 69.037056,81.836128 
	C68.973213,96.658295 68.992218,111.481033 69.034698,126.303352 
	C69.051147,132.044281 69.939674,132.935165 75.758781,132.947372 
	C92.746185,132.983047 109.735207,132.816162 126.720306,133.012589 
	C131.626984,133.069321 133.130020,131.125290 132.992065,126.484497 
	C132.835892,121.230408 133.292221,115.958099 133.721375,110.510864 
	C133.960510,118.091827 133.960510,125.855644 133.960510,133.889862 
	C111.866570,133.889862 90.169815,133.889862 68.104683,133.889862 
	C68.104683,112.032448 68.104683,90.339462 68.104683,68.222061 
	C75.913101,68.222061 83.777901,68.222061 91.684669,68.222061 
	C91.519928,70.255203 91.360710,72.220215 91.168114,74.606262 
z"/>
<path fill="#3BDEB7" opacity="1.000000" stroke="none" 
	d="
M134.004837,91.175034 
	C133.597717,87.130989 133.060165,82.666794 132.982849,78.194656 
	C132.830048,69.354675 132.639267,69.062080 123.627983,69.052559 
	C123.130348,69.052032 122.626152,69.105316 122.136078,69.044456 
	C116.261063,68.314934 111.286217,69.000763 110.220184,76.572357 
	C110.151459,74.044594 110.351967,71.299377 110.581642,68.154755 
	C117.946159,68.154755 125.639305,68.154755 134.082504,68.154755 
	C134.082504,75.654686 134.082504,83.202995 134.004837,91.175034 
z"/>
<path fill="#3BDEB7" opacity="1.000000" stroke="none" 
	d="
M109.570000,77.208054 
	C109.307014,77.908867 108.808472,78.779900 108.013901,79.782974 
	C108.256729,79.069435 108.795586,78.223846 109.570000,77.208054 
z"/>
<path fill="#39E2B8" opacity="1.000000" stroke="none" 
	d="
M91.945236,76.689423 
	C91.670631,76.477737 91.395882,75.964813 91.107803,75.152901 
	C91.378014,75.365334 91.661552,75.876762 91.945236,76.689423 
z"/>
<path fill="#39E2B8" opacity="1.000000" stroke="none" 
	d="
M93.123848,78.658539 
	C92.844666,78.503235 92.505196,78.071648 92.081200,77.376770 
	C92.352303,77.536400 92.707932,77.959328 93.123848,78.658539 
z"/>
<path fill="#39E2B8" opacity="1.000000" stroke="none" 
	d="
M94.065155,79.734467 
	C93.888115,79.760612 93.619751,79.514816 93.206055,79.036087 
	C93.365089,79.022942 93.669464,79.242737 94.065155,79.734467 
z"/>
<path fill="#39E2B8" opacity="1.000000" stroke="none" 
	d="
M95.088799,80.561531 
	C94.910675,80.625771 94.616592,80.439041 94.157730,80.043648 
	C94.319588,79.993515 94.646210,80.152039 95.088799,80.561531 
z"/>
</svg>