<svg version="1.1" id="Layer_1" xmlns="http://www.w3.org/2000/svg" xmlns:xlink="http://www.w3.org/1999/xlink" x="0px" y="0px"
	 width="100%" viewBox="0 0 200 200" enable-background="new 0 0 200 200" xml:space="preserve">
<path fill="#FFFF02" opacity="1.000000" stroke="none" 
	d="
M137.000000,201.000000 
	C91.333336,201.000000 46.166672,201.000000 1.000006,201.000000 
	C1.000004,134.333344 1.000004,67.666679 1.000002,1.000015 
	C67.666656,1.000010 134.333313,1.000010 200.999969,1.000005 
	C200.999985,67.666649 200.999985,134.333298 201.000000,200.999969 
	C179.833328,201.000000 158.666672,201.000000 137.000000,201.000000 
M99.574356,57.376915 
	C99.466232,57.732838 99.358109,58.088760 99.335632,58.768719 
	C99.335632,58.768719 99.081902,58.987705 98.508827,59.598808 
	C98.368462,72.410896 98.228096,85.222984 98.360680,98.429771 
	C98.583069,98.686783 98.863914,98.825676 99.050049,98.903870 
	C99.050049,98.903870 99.176445,98.800041 99.220222,99.494827 
	C100.039536,99.752655 100.890030,100.305107 101.673294,100.222237 
	C108.622650,99.486908 115.606453,98.903839 122.479309,97.700287 
	C125.423531,97.184685 128.129532,95.308762 131.084396,93.316956 
	C131.066330,82.949463 131.079102,72.581688 130.983307,62.214909 
	C130.973541,61.157551 130.312225,60.106209 129.618011,58.724819 
	C129.411484,58.490490 129.209808,58.252052 128.391449,57.446400 
	C118.923950,57.292984 109.456444,57.139568 99.574356,57.376915 
M80.834290,142.914307 
	C80.834290,136.328003 80.834290,129.741714 80.834290,122.215775 
	C71.688904,125.900314 63.230362,129.209366 54.854797,132.716568 
	C49.089046,135.130936 48.248783,137.907303 51.650307,144.560974 
	C60.663513,144.704407 69.676529,144.873657 78.690308,144.939560 
	C79.370789,144.944534 80.056656,144.213974 80.834290,142.914307 
M99.692947,144.337906 
	C108.419945,144.577698 117.151962,144.708084 125.871628,145.107788 
	C129.687424,145.282700 131.199341,144.066864 131.098999,140.047882 
	C130.867447,130.775314 131.087143,121.492210 131.006638,112.214401 
	C130.994461,110.811653 130.353897,109.414375 129.701675,107.538292 
	C129.267761,107.356812 128.757385,106.924744 128.411118,107.030418 
	C119.387207,109.784615 110.349098,112.502129 101.413071,115.520897 
	C100.382996,115.868889 99.343536,117.936028 99.318001,119.226082 
	C99.156952,127.360619 99.281128,135.500793 99.692947,144.337906 
M80.306671,57.593586 
	C72.931137,57.376629 65.556389,57.058636 58.179611,57.001209 
	C55.812363,56.982780 53.439754,57.652557 50.755184,58.356979 
	C50.537560,58.582851 50.310177,58.798431 49.469906,59.588303 
	C49.306988,60.222561 49.003132,60.856522 49.001812,61.491116 
	C48.970684,76.414093 48.943844,91.337280 49.022053,106.259888 
	C49.028252,107.442734 49.804478,108.621544 51.001854,109.869942 
	C60.908413,107.560440 70.814972,105.250938 81.367012,102.400818 
	C81.449005,88.195503 81.534164,73.990204 81.589142,59.784786 
	C81.590179,59.515381 81.234322,59.244598 80.813370,58.641281 
	C80.813370,58.641281 80.797234,58.235825 80.306671,57.593586 
M146.753815,91.183365 
	C146.753815,96.190918 146.753815,101.198463 146.753815,106.632568 
	C147.578690,106.582138 149.277359,106.911423 149.600006,106.389702 
	C152.068573,102.398140 156.399292,103.015945 159.994263,101.824051 
	C161.537445,101.312424 163.170044,100.798248 164.468491,99.873199 
	C167.974686,97.375267 167.577850,93.868866 163.660599,92.209755 
	C162.298264,91.632744 160.798187,91.321053 159.330185,91.065048 
	C155.588089,90.412460 151.341339,91.872772 148.298523,88.159721 
	C147.935669,87.716927 146.197754,88.400993 145.097198,88.562744 
	C145.437210,89.320084 145.777206,90.077431 146.753815,91.183365 
z"/>
<path fill="#080701" opacity="1.000000" stroke="none" 
	d="
M80.721527,102.941437 
	C70.814972,105.250938 60.908413,107.560440 50.630119,109.385666 
	C50.196602,92.268837 50.134819,75.636276 50.073036,59.003719 
	C50.310177,58.798431 50.537560,58.582851 51.369835,58.242393 
	C61.588737,58.163818 71.192986,58.199821 80.797234,58.235825 
	C80.797234,58.235825 80.813370,58.641281 80.859802,59.275238 
	C80.844658,74.253281 80.783089,88.597359 80.721527,102.941437 
z"/>
<path fill="#090901" opacity="1.000000" stroke="none" 
	d="
M129.013000,58.009502 
	C129.209808,58.252052 129.411484,58.490490 129.703735,59.344543 
	C129.849106,71.297493 129.908737,82.630730 129.742462,94.288086 
	C119.403175,96.008156 109.289810,97.404099 99.176445,98.800041 
	C99.176445,98.800041 99.050049,98.903870 99.153397,98.649490 
	C99.256744,98.395119 99.038528,97.995750 99.123367,97.534004 
	C99.166107,84.377403 99.124008,71.682556 99.081902,58.987705 
	C99.081902,58.987705 99.335632,58.768719 99.523865,58.563522 
	C99.712090,58.358330 100.045418,58.023045 100.508881,58.073235 
	C110.319229,58.085449 119.666115,58.047478 129.013000,58.009502 
z"/>
<path fill="#0A0901" opacity="1.000000" stroke="none" 
	d="
M99.311089,143.639099 
	C99.281128,135.500793 99.156952,127.360619 99.318001,119.226082 
	C99.343536,117.936028 100.382996,115.868889 101.413071,115.520897 
	C110.349098,112.502129 119.387207,109.784615 128.411118,107.030418 
	C128.757385,106.924744 129.267761,107.356812 129.756226,108.234772 
	C129.810791,120.467880 129.810791,132.004517 129.810791,143.639099 
	C119.148338,143.639099 109.229713,143.639099 99.311089,143.639099 
z"/>
<path fill="#0C0C01" opacity="1.000000" stroke="none" 
	d="
M51.040924,144.001282 
	C48.248783,137.907303 49.089046,135.130936 54.854797,132.716568 
	C63.230362,129.209366 71.688904,125.900314 80.834290,122.215775 
	C80.834290,129.741714 80.834290,136.328003 80.343285,143.373932 
	C70.248497,143.889465 60.644711,143.945374 51.040924,144.001282 
z"/>
<path fill="#0F0D01" opacity="1.000000" stroke="none" 
	d="
M146.435516,91.009071 
	C145.777206,90.077431 145.437210,89.320084 145.097198,88.562744 
	C146.197754,88.400993 147.935669,87.716927 148.298523,88.159721 
	C151.341339,91.872772 155.588089,90.412460 159.330185,91.065048 
	C160.798187,91.321053 162.298264,91.632744 163.660599,92.209755 
	C167.577850,93.868866 167.974686,97.375267 164.468491,99.873199 
	C163.170044,100.798248 161.537445,101.312424 159.994263,101.824051 
	C156.399292,103.015945 152.068573,102.398140 149.600006,106.389702 
	C149.277359,106.911423 147.578690,106.582138 146.753815,106.632568 
	C146.753815,101.198463 146.753815,96.190918 146.435516,91.009071 
z"/>
<path fill="#F8F73C" opacity="1.000000" stroke="none" 
	d="
M99.502014,143.988495 
	C109.229713,143.639099 119.148338,143.639099 129.810791,143.639099 
	C129.810791,132.004517 129.810791,120.467880 129.907394,108.472908 
	C130.353897,109.414375 130.994461,110.811653 131.006638,112.214401 
	C131.087143,121.492210 130.867447,130.775314 131.098999,140.047882 
	C131.199341,144.066864 129.687424,145.282700 125.871628,145.107788 
	C117.151962,144.708084 108.419945,144.577698 99.502014,143.988495 
z"/>
<path fill="#E5E828" opacity="1.000000" stroke="none" 
	d="
M99.198334,99.147430 
	C109.289810,97.404099 119.403175,96.008156 129.986420,94.308876 
	C130.456299,94.005539 130.943771,94.050911 130.943771,94.050919 
	C128.129532,95.308762 125.423531,97.184685 122.479309,97.700287 
	C115.606453,98.903839 108.622650,99.486908 101.673294,100.222237 
	C100.890030,100.305107 100.039536,99.752655 99.198334,99.147430 
z"/>
<path fill="#F9F73A" opacity="1.000000" stroke="none" 
	d="
M49.771469,59.296013 
	C50.134819,75.636276 50.196602,92.268837 50.240616,109.351814 
	C49.804478,108.621544 49.028252,107.442734 49.022053,106.259888 
	C48.943844,91.337280 48.970684,76.414093 49.001812,61.491116 
	C49.003132,60.856522 49.306988,60.222561 49.771469,59.296013 
z"/>
<path fill="#F8F834" opacity="1.000000" stroke="none" 
	d="
M81.044266,102.671127 
	C80.783089,88.597359 80.844658,74.253281 80.975601,59.441826 
	C81.234322,59.244598 81.590179,59.515381 81.589142,59.784786 
	C81.534164,73.990204 81.449005,88.195503 81.044266,102.671127 
z"/>
<path fill="#F7F62E" opacity="1.000000" stroke="none" 
	d="
M98.795364,59.293259 
	C99.124008,71.682556 99.166107,84.377403 98.885574,97.541595 
	C98.562943,98.010925 98.087738,98.035072 98.087738,98.035072 
	C98.228096,85.222984 98.368462,72.410896 98.795364,59.293259 
z"/>
<path fill="#F9F73A" opacity="1.000000" stroke="none" 
	d="
M131.014084,93.683929 
	C130.943771,94.050911 130.456299,94.005539 130.212341,93.984749 
	C129.908737,82.630730 129.849106,71.297493 129.871368,59.508167 
	C130.312225,60.106209 130.973541,61.157551 130.983307,62.214909 
	C131.079102,72.581688 131.066330,82.949463 131.014084,93.683929 
z"/>
<path fill="#F7F742" opacity="1.000000" stroke="none" 
	d="
M80.551956,57.914703 
	C71.192986,58.199821 61.588737,58.163818 51.527046,58.067642 
	C53.439754,57.652557 55.812363,56.982780 58.179611,57.001209 
	C65.556389,57.058636 72.931137,57.376629 80.551956,57.914703 
z"/>
<path fill="#F7F742" opacity="1.000000" stroke="none" 
	d="
M51.345615,144.281128 
	C60.644711,143.945374 70.248497,143.889465 80.296150,143.829437 
	C80.056656,144.213974 79.370789,144.944534 78.690308,144.939560 
	C69.676529,144.873657 60.663513,144.704407 51.345615,144.281128 
z"/>
<path fill="#F7F742" opacity="1.000000" stroke="none" 
	d="
M128.702225,57.727951 
	C119.666115,58.047478 110.319229,58.085449 100.491318,57.814240 
	C100.003174,57.332088 99.996063,57.159122 99.988945,56.986153 
	C109.456444,57.139568 118.923950,57.292984 128.702225,57.727951 
z"/>
<path fill="#E5E828" opacity="1.000000" stroke="none" 
	d="
M98.224213,98.232422 
	C98.087738,98.035072 98.562943,98.010925 98.800735,98.003342 
	C99.038528,97.995750 99.256744,98.395119 99.229980,98.620789 
	C98.863914,98.825676 98.583069,98.686783 98.224213,98.232422 
z"/>
<path fill="#F7F62E" opacity="1.000000" stroke="none" 
	d="
M99.781647,57.181534 
	C99.996063,57.159122 100.003174,57.332088 100.027855,57.764053 
	C100.045418,58.023045 99.712090,58.358330 99.481033,58.401505 
	C99.358109,58.088760 99.466232,57.732838 99.781647,57.181534 
z"/>
</svg>